<svg width="60" height="60" viewBox="0 0 60 60" fill="none" xmlns="http://www.w3.org/2000/svg">
<g id="LOGO">
<circle id="Ellipse 19" cx="30" cy="30" r="30" fill="#F10027"/>
<g id="im">
<path id="Path 1" d="M11.7783 41.5919C11.9459 40.8965 12.0475 40.1686 12.2927 39.5118C13.2765 36.8717 14.8325 34.6769 16.4562 32.5455C19.2465 28.8828 22.3676 25.6315 25.6854 22.6286C25.7789 22.5548 25.8755 22.4865 25.9749 22.4239C26.3692 23.0025 26.7448 23.5705 27.136 24.1233C27.5913 24.7669 27.8932 24.8037 28.3573 24.1916C30.0126 22.0156 32.0054 20.2193 34.2316 18.8967C34.7867 18.5627 35.2722 18.1746 35.4678 17.3784C35.6087 16.8042 36.0678 16.6842 36.5234 16.9924C36.9565 17.2857 37.3718 17.6161 37.7856 17.9458C38.3683 18.4098 38.3744 18.6083 37.816 19.1138C35.9806 20.7752 34.143 22.433 32.3032 24.0873C27.4272 28.4694 22.5663 32.8747 17.6613 37.2139C16.0235 38.6633 14.2738 39.9427 12.5719 41.2937C12.381 41.4453 12.1671 41.5584 11.9647 41.6892L11.7783 41.5919Z" fill="#FFC42E"/>
<g id="Group 1">
<path id="Path 3" d="M30.9903 29.1971L30.7524 29.1957C30.7592 28.0374 30.7496 26.8784 30.7514 25.72L28.7192 27.2422C28.6215 30.0405 28.5254 32.8386 28.4309 35.6367C28.4159 36.0721 28.4121 36.5082 28.4135 36.9442C28.4158 37.6997 28.9003 38.1128 29.8288 38.0921C30.719 38.0723 31.082 37.6096 31.0718 36.9294C31.0429 34.9689 31.0075 33.0083 30.9814 31.0478C30.9733 30.4305 30.9867 29.8139 30.9903 29.1971Z" fill="#FFC42E"/>
<path id="Path 4" d="M27.8783 19.7922C28.8606 20.331 28.9382 21.1561 28.9055 22.0256C28.8959 22.2829 28.8875 22.5402 28.8778 22.7975L30.8418 21.823C30.8443 21.7759 30.8458 21.7286 30.8486 21.6814C30.9266 20.9471 31.3295 20.2605 31.9839 19.7467C34.9546 17.5844 35.5674 13.151 33.1178 10.5919C31.2218 8.61126 28.3276 8.64266 26.5626 10.6669C24.2931 13.2702 24.7224 18.061 27.8783 19.7922ZM32.3865 12.2047C33.5576 13.7582 33.5382 15.8235 32.358 17.0595L32.3865 12.2047Z" fill="#FFC42E"/>
</g>
<path id="Path 12" d="M39.3846 11.846L39.348 18.0648L38.841 18.0629C38.7545 16.0644 38.6679 14.066 38.5813 12.0676L38.2566 12.0597L38.2211 18.0893L37.651 18.0894L37.6869 11.982L37.1491 11.976L37.1134 18.0495L36.6074 18.0552L36.6428 12.0304L36.1104 12.0179L36.0748 18.0751L35.4419 18.0823L35.4786 11.836L34.9206 11.8106C34.8703 12.2874 34.7955 12.7633 34.7744 13.2413C34.6921 15.0924 34.5981 16.9438 34.5734 18.7958C34.5659 19.3424 34.5857 20.0127 34.9072 20.4202C37.2403 23.3774 36.7737 26.7029 36.4621 29.9759C36.1723 33.0198 35.6431 36.0438 35.272 39.082C35.0952 40.5251 35.8642 41.4172 37.1753 41.4604C38.5331 41.5055 39.3989 40.5694 39.2349 39.0962C38.8964 36.054 38.3719 33.0243 38.167 29.9761C38.0168 27.7432 38.2087 25.4866 38.3504 23.2459C38.4125 22.6407 38.6664 22.0653 39.0814 21.5901C40.0966 20.4305 40.2346 19.1433 40.1812 17.7326C40.1072 15.775 40.1829 13.8128 40.1944 11.8523L39.3846 11.846ZM36.7003 32.0253L36.8648 31.9898L36.8138 40.6535C35.8863 40.3764 35.6072 39.9171 35.7168 39.1632C36.0623 36.7862 36.3749 34.405 36.7003 32.0253Z" fill="#FFC42E"/>
<path id="Path 13" d="M28.7541 39.9004C23.9613 39.8579 19.1683 39.8317 14.3752 39.8218C13.9421 40.0751 13.5091 40.3286 13.0798 40.5858C12.9244 40.679 12.7498 40.7488 12.5841 40.8296L12.43 40.7724C12.5256 40.4622 12.5923 40.1419 12.6979 39.8353C12.2083 39.865 11.7134 39.9369 11.5562 40.0828C10.3119 41.2336 9.23859 42.4405 7.99999 43.7398C21.4329 43.8188 34.5151 43.8988 47.5975 43.9589C47.9987 43.9612 48.5908 43.8165 48.7709 43.64C49.9384 42.4961 51.0162 41.3244 52.2275 40.0517L38.4464 39.9706C38.393 40.8413 37.7478 41.3739 36.7999 41.3441C35.8856 41.3153 35.3032 40.8014 35.2699 39.952L28.7546 39.9137L28.7541 39.9004Z" fill="#FFC42E"/>
</g>
</g>
</svg>
